<?xml version="1.0" encoding="utf-8"?>
<!-- Svg Vector Icons : http://www.onlinewebfonts.com/icon -->
<!DOCTYPE svg PUBLIC "-//W3C//DTD SVG 1.1//EN" "http://www.w3.org/Graphics/SVG/1.1/DTD/svg11.dtd">
<svg version="1.1" xmlns="http://www.w3.org/2000/svg" xmlns:xlink="http://www.w3.org/1999/xlink" x="0px" y="0px" viewBox="0 0 256 256" enable-background="new 0 0 256 256" xml:space="preserve">
<metadata> Svg Vector Icons : http://www.onlinewebfonts.com/icon </metadata>
<g><g><path fill="#000000" d="M128,14.3"/><path fill="#000000" d="M143.7,176.4c-3.3,0-5.6-0.5-6.9-1.6c-1.3-1.1-2-3-2-5.9c0-1.2,0.2-2.8,0.6-5.1c0.4-2.2,0.9-4.2,1.4-6l6.3-21.8c0.6-2,1-4.2,1.3-6.6c0.2-2.4,0.3-4.1,0.3-5c0-4.6-1.7-8.3-5-11.2c-3.3-2.9-8-4.3-14.2-4.3c-3.4,0-7,0.6-10.8,1.8c-3.8,1.2-7.8,2.6-12,4.2l-1.7,6.7c1.2-0.5,2.7-0.9,4.4-1.4c1.7-0.5,3.4-0.7,5.1-0.7c3.3,0,5.6,0.6,6.8,1.6c1.2,1.1,1.8,3,1.8,5.9c0,1.5-0.2,3.3-0.6,5.1c-0.4,1.9-0.9,3.9-1.4,5.9l-6.3,21.9c-0.6,2.3-1,4.4-1.2,6.2c-0.2,1.8-0.4,3.6-0.4,5.3c0,4.5,1.7,8.2,5.1,11.1c3.4,2.9,8.2,4.4,14.4,4.4c4,0,7.5-0.5,10.6-1.5c3-1,7.1-2.5,12.2-4.5l1.7-6.7c-0.9,0.4-2.3,0.9-4.2,1.4C147,176.1,145.3,176.4,143.7,176.4 M139.7,69c-4.2,0-7.7,1.3-10.7,4c-3,2.7-4.5,5.9-4.5,9.7c0,3.8,1.5,7,4.5,9.7c3,2.7,6.6,4,10.7,4s7.7-1.3,10.7-4c2.9-2.7,4.4-5.9,4.4-9.7s-1.5-7.1-4.4-9.7C147.5,70.3,143.9,69,139.7,69 M128,10C62.8,10,10,62.8,10,128c0,65.2,52.8,118,118,118c65.2,0,118-52.8,118-118C246,62.8,193.2,10,128,10 M128,235.3c-59.2,0-107.3-48-107.3-107.3c0-59.2,48-107.3,107.3-107.3c59.2,0,107.3,48,107.3,107.3C235.3,187.2,187.2,235.3,128,235.3"/></g></g>
</svg>